<mxfile host="app.diagrams.net" agent="Mozilla/5.0 (Windows NT 10.0; Win64; x64; rv:129.0) Gecko/20100101 Firefox/129.0" version="24.7.8">
  <diagram name="Page-1" id="gHoctX7T37AAvz-_zObV">
    <mxGraphModel dx="1434" dy="744" grid="1" gridSize="10" guides="1" tooltips="1" connect="1" arrows="1" fold="1" page="1" pageScale="1" pageWidth="850" pageHeight="1100" math="0" shadow="0">
      <root>
        <mxCell id="0" />
        <mxCell id="1" parent="0" />
        <mxCell id="jtaIMVUOKQbFZ3Qx_FAC-17" value="" style="rounded=0;whiteSpace=wrap;html=1;fillColor=none;" parent="1" vertex="1">
          <mxGeometry x="223" y="177" width="479" height="460" as="geometry" />
        </mxCell>
        <mxCell id="jtaIMVUOKQbFZ3Qx_FAC-8" value="Manter Registros" style="ellipse;whiteSpace=wrap;html=1;" parent="1" vertex="1">
          <mxGeometry x="394" y="242" width="140" height="70" as="geometry" />
        </mxCell>
        <mxCell id="jtaIMVUOKQbFZ3Qx_FAC-10" value="" style="endArrow=none;html=1;rounded=0;entryX=0;entryY=0.5;entryDx=0;entryDy=0;exitX=1;exitY=0.3333333333333333;exitDx=0;exitDy=0;exitPerimeter=0;" parent="1" source="1KVN0zQxhIOZLRA4CQc6-15" target="jtaIMVUOKQbFZ3Qx_FAC-8" edge="1">
          <mxGeometry width="50" height="50" relative="1" as="geometry">
            <mxPoint x="122" y="-50" as="sourcePoint" />
            <mxPoint x="283" y="-13" as="targetPoint" />
          </mxGeometry>
        </mxCell>
        <mxCell id="jtaIMVUOKQbFZ3Qx_FAC-12" value="Sistema Carômetro" style="text;html=1;align=center;verticalAlign=middle;whiteSpace=wrap;rounded=0;fontStyle=1;fontSize=14;" parent="1" vertex="1">
          <mxGeometry x="394.5" y="191" width="136" height="30" as="geometry" />
        </mxCell>
        <mxCell id="jtaIMVUOKQbFZ3Qx_FAC-15" value="Buscar Turma" style="ellipse;whiteSpace=wrap;html=1;" parent="1" vertex="1">
          <mxGeometry x="503" y="433" width="140" height="70" as="geometry" />
        </mxCell>
        <mxCell id="jtaIMVUOKQbFZ3Qx_FAC-16" value="" style="endArrow=none;html=1;rounded=0;entryX=1;entryY=0.5;entryDx=0;entryDy=0;exitX=0;exitY=0.3333333333333333;exitDx=0;exitDy=0;exitPerimeter=0;" parent="1" source="1KVN0zQxhIOZLRA4CQc6-16" target="jtaIMVUOKQbFZ3Qx_FAC-15" edge="1">
          <mxGeometry width="50" height="50" relative="1" as="geometry">
            <mxPoint x="713" y="513" as="sourcePoint" />
            <mxPoint x="446" y="534" as="targetPoint" />
          </mxGeometry>
        </mxCell>
        <mxCell id="1KVN0zQxhIOZLRA4CQc6-3" value="Buscar Aluno" style="ellipse;whiteSpace=wrap;html=1;" parent="1" vertex="1">
          <mxGeometry x="503" y="543" width="140" height="70" as="geometry" />
        </mxCell>
        <mxCell id="1KVN0zQxhIOZLRA4CQc6-4" value="&amp;lt;&amp;lt;extend&amp;gt;&amp;gt;" style="html=1;verticalAlign=bottom;labelBackgroundColor=none;endArrow=open;endFill=0;dashed=1;rounded=0;exitX=0.5;exitY=0;exitDx=0;exitDy=0;entryX=0.5;entryY=1;entryDx=0;entryDy=0;" parent="1" source="1KVN0zQxhIOZLRA4CQc6-3" target="jtaIMVUOKQbFZ3Qx_FAC-15" edge="1">
          <mxGeometry x="-0.5" y="-30" width="160" relative="1" as="geometry">
            <mxPoint x="394" y="543" as="sourcePoint" />
            <mxPoint x="554" y="543" as="targetPoint" />
            <mxPoint as="offset" />
          </mxGeometry>
        </mxCell>
        <mxCell id="1KVN0zQxhIOZLRA4CQc6-11" value="Diagrama de Caso de Uso" style="text;html=1;align=center;verticalAlign=middle;whiteSpace=wrap;rounded=0;fontSize=16;fontStyle=1" parent="1" vertex="1">
          <mxGeometry x="78" y="106" width="215" height="30" as="geometry" />
        </mxCell>
        <mxCell id="1KVN0zQxhIOZLRA4CQc6-12" value="Diagrama de Classe de Análise" style="text;html=1;align=center;verticalAlign=middle;whiteSpace=wrap;rounded=0;fontSize=16;fontStyle=1" parent="1" vertex="1">
          <mxGeometry x="78" y="686" width="250" height="30" as="geometry" />
        </mxCell>
        <mxCell id="1KVN0zQxhIOZLRA4CQc6-15" value="Administrador" style="shape=umlActor;verticalLabelPosition=bottom;verticalAlign=top;html=1;" parent="1" vertex="1">
          <mxGeometry x="153" y="257" width="30" height="60" as="geometry" />
        </mxCell>
        <mxCell id="1KVN0zQxhIOZLRA4CQc6-16" value="Usuário" style="shape=umlActor;verticalLabelPosition=bottom;verticalAlign=top;html=1;" parent="1" vertex="1">
          <mxGeometry x="743" y="448" width="30" height="60" as="geometry" />
        </mxCell>
        <mxCell id="1KVN0zQxhIOZLRA4CQc6-23" value="Cadastrar Aluno" style="ellipse;whiteSpace=wrap;html=1;" parent="1" vertex="1">
          <mxGeometry x="503" y="337" width="140" height="70" as="geometry" />
        </mxCell>
        <mxCell id="1KVN0zQxhIOZLRA4CQc6-24" value="" style="endArrow=none;html=1;rounded=0;entryX=1;entryY=0.5;entryDx=0;entryDy=0;exitX=0;exitY=0.3333333333333333;exitDx=0;exitDy=0;exitPerimeter=0;" parent="1" source="1KVN0zQxhIOZLRA4CQc6-106" target="1KVN0zQxhIOZLRA4CQc6-23" edge="1">
          <mxGeometry width="50" height="50" relative="1" as="geometry">
            <mxPoint x="743" y="334.5" as="sourcePoint" />
            <mxPoint x="252" y="247" as="targetPoint" />
          </mxGeometry>
        </mxCell>
        <mxCell id="1KVN0zQxhIOZLRA4CQc6-27" value="Cadastrar Curso" style="ellipse;whiteSpace=wrap;html=1;" parent="1" vertex="1">
          <mxGeometry x="283" y="470" width="140" height="70" as="geometry" />
        </mxCell>
        <mxCell id="1KVN0zQxhIOZLRA4CQc6-28" value="Cadastrar Turma" style="ellipse;whiteSpace=wrap;html=1;" parent="1" vertex="1">
          <mxGeometry x="283" y="337" width="140" height="70" as="geometry" />
        </mxCell>
        <mxCell id="1KVN0zQxhIOZLRA4CQc6-52" value="" style="endArrow=none;html=1;rounded=0;entryX=0;entryY=0.5;entryDx=0;entryDy=0;exitX=1;exitY=0.3333333333333333;exitDx=0;exitDy=0;exitPerimeter=0;" parent="1" source="1KVN0zQxhIOZLRA4CQc6-15" target="1KVN0zQxhIOZLRA4CQc6-28" edge="1">
          <mxGeometry width="50" height="50" relative="1" as="geometry">
            <mxPoint x="142" y="-2" as="sourcePoint" />
            <mxPoint x="293" y="-2" as="targetPoint" />
          </mxGeometry>
        </mxCell>
        <mxCell id="1KVN0zQxhIOZLRA4CQc6-97" value="&lt;p style=&quot;margin:0px;margin-top:4px;text-align:center;&quot;&gt;&lt;b&gt;&amp;lt;&amp;lt;View&amp;gt;&amp;gt;&lt;br&gt;Cadastro&lt;/b&gt;&lt;b&gt;Tela&lt;/b&gt;&lt;/p&gt;&lt;hr size=&quot;1&quot; style=&quot;border-style:solid;&quot;&gt;&lt;div style=&quot;height:2px;&quot;&gt;&lt;/div&gt;" style="verticalAlign=top;align=left;overflow=fill;html=1;whiteSpace=wrap;" parent="1" vertex="1">
          <mxGeometry x="176" y="796" width="140" height="60" as="geometry" />
        </mxCell>
        <mxCell id="1KVN0zQxhIOZLRA4CQc6-98" value="&lt;p style=&quot;margin:0px;margin-top:4px;text-align:center;&quot;&gt;&lt;b&gt;&amp;lt;&amp;lt;View&amp;gt;&amp;gt;&lt;br&gt;Busca&lt;/b&gt;&lt;b&gt;Tela&lt;/b&gt;&lt;/p&gt;&lt;hr size=&quot;1&quot; style=&quot;border-style:solid;&quot;&gt;&lt;div style=&quot;height:2px;&quot;&gt;&lt;/div&gt;" style="verticalAlign=top;align=left;overflow=fill;html=1;whiteSpace=wrap;" parent="1" vertex="1">
          <mxGeometry x="176" y="976" width="140" height="60" as="geometry" />
        </mxCell>
        <mxCell id="1KVN0zQxhIOZLRA4CQc6-102" value="" style="endArrow=none;html=1;rounded=0;entryX=1;entryY=0.5;entryDx=0;entryDy=0;exitX=0;exitY=0.3333333333333333;exitDx=0;exitDy=0;exitPerimeter=0;" parent="1" source="1KVN0zQxhIOZLRA4CQc6-16" target="1KVN0zQxhIOZLRA4CQc6-3" edge="1">
          <mxGeometry width="50" height="50" relative="1" as="geometry">
            <mxPoint x="153" y="478" as="sourcePoint" />
            <mxPoint x="304" y="478" as="targetPoint" />
          </mxGeometry>
        </mxCell>
        <mxCell id="1KVN0zQxhIOZLRA4CQc6-106" value="Aluno" style="shape=umlActor;verticalLabelPosition=bottom;verticalAlign=top;html=1;" parent="1" vertex="1">
          <mxGeometry x="743" y="257" width="30" height="60" as="geometry" />
        </mxCell>
        <mxCell id="1KVN0zQxhIOZLRA4CQc6-108" value="&amp;lt;&amp;lt;extend&amp;gt;&amp;gt;" style="html=1;verticalAlign=bottom;labelBackgroundColor=none;endArrow=open;endFill=0;dashed=1;rounded=0;exitX=0;exitY=0.5;exitDx=0;exitDy=0;entryX=1;entryY=0.5;entryDx=0;entryDy=0;" parent="1" source="1KVN0zQxhIOZLRA4CQc6-23" target="1KVN0zQxhIOZLRA4CQc6-28" edge="1">
          <mxGeometry y="-1" width="160" relative="1" as="geometry">
            <mxPoint x="583" y="481" as="sourcePoint" />
            <mxPoint x="583" y="441" as="targetPoint" />
            <mxPoint as="offset" />
          </mxGeometry>
        </mxCell>
        <mxCell id="1KVN0zQxhIOZLRA4CQc6-109" value="&amp;lt;&amp;lt;extend&amp;gt;&amp;gt;" style="html=1;verticalAlign=bottom;labelBackgroundColor=none;endArrow=open;endFill=0;dashed=1;rounded=0;exitX=0.5;exitY=0;exitDx=0;exitDy=0;entryX=0.5;entryY=1;entryDx=0;entryDy=0;" parent="1" source="1KVN0zQxhIOZLRA4CQc6-27" target="1KVN0zQxhIOZLRA4CQc6-28" edge="1">
          <mxGeometry x="-0.5" y="-30" width="160" relative="1" as="geometry">
            <mxPoint x="534" y="376" as="sourcePoint" />
            <mxPoint x="433" y="471" as="targetPoint" />
            <mxPoint as="offset" />
          </mxGeometry>
        </mxCell>
        <mxCell id="1KVN0zQxhIOZLRA4CQc6-115" value="&lt;p style=&quot;margin:0px;margin-top:4px;text-align:center;&quot;&gt;&lt;b&gt;&amp;lt;&amp;lt;Controller&amp;gt;&amp;gt;&lt;br&gt;Registro&lt;/b&gt;&lt;b&gt;Controle&lt;/b&gt;&lt;/p&gt;&lt;hr size=&quot;1&quot; style=&quot;border-style:solid;&quot;&gt;&lt;div style=&quot;height:2px;&quot;&gt;&lt;/div&gt;" style="verticalAlign=top;align=left;overflow=fill;html=1;whiteSpace=wrap;" parent="1" vertex="1">
          <mxGeometry x="396" y="886" width="140" height="60" as="geometry" />
        </mxCell>
        <mxCell id="1KVN0zQxhIOZLRA4CQc6-116" value="" style="endArrow=none;html=1;rounded=0;entryX=0;entryY=0.5;entryDx=0;entryDy=0;exitX=1;exitY=0.5;exitDx=0;exitDy=0;" parent="1" source="1KVN0zQxhIOZLRA4CQc6-98" target="1KVN0zQxhIOZLRA4CQc6-115" edge="1">
          <mxGeometry width="50" height="50" relative="1" as="geometry">
            <mxPoint x="236" y="916" as="sourcePoint" />
            <mxPoint x="286" y="866" as="targetPoint" />
          </mxGeometry>
        </mxCell>
        <mxCell id="1KVN0zQxhIOZLRA4CQc6-117" value="&lt;p style=&quot;margin:0px;margin-top:4px;text-align:center;&quot;&gt;&lt;b&gt;&amp;lt;&amp;lt;Model&amp;gt;&amp;gt;&lt;br&gt;Curso&lt;/b&gt;&lt;br&gt;&lt;/p&gt;&lt;hr size=&quot;1&quot; style=&quot;border-style:solid;&quot;&gt;&lt;div style=&quot;height:2px;&quot;&gt;&lt;/div&gt;" style="verticalAlign=top;align=left;overflow=fill;html=1;whiteSpace=wrap;" parent="1" vertex="1">
          <mxGeometry x="611" y="766" width="140" height="60" as="geometry" />
        </mxCell>
        <mxCell id="1KVN0zQxhIOZLRA4CQc6-118" value="" style="endArrow=none;html=1;rounded=0;entryX=0;entryY=0.5;entryDx=0;entryDy=0;exitX=1;exitY=0.5;exitDx=0;exitDy=0;" parent="1" source="1KVN0zQxhIOZLRA4CQc6-97" target="1KVN0zQxhIOZLRA4CQc6-115" edge="1">
          <mxGeometry width="50" height="50" relative="1" as="geometry">
            <mxPoint x="326" y="1046" as="sourcePoint" />
            <mxPoint x="396" y="936" as="targetPoint" />
          </mxGeometry>
        </mxCell>
        <mxCell id="1KVN0zQxhIOZLRA4CQc6-119" value="&lt;p style=&quot;margin:0px;margin-top:4px;text-align:center;&quot;&gt;&lt;b&gt;&amp;lt;&amp;lt;Model&amp;gt;&amp;gt;&lt;br&gt;&lt;/b&gt;&lt;b&gt;Turma&lt;/b&gt;&lt;br&gt;&lt;/p&gt;&lt;hr size=&quot;1&quot; style=&quot;border-style:solid;&quot;&gt;&lt;div style=&quot;height:2px;&quot;&gt;&lt;/div&gt;" style="verticalAlign=top;align=left;overflow=fill;html=1;whiteSpace=wrap;" parent="1" vertex="1">
          <mxGeometry x="611" y="886" width="140" height="60" as="geometry" />
        </mxCell>
        <mxCell id="1KVN0zQxhIOZLRA4CQc6-120" value="&lt;p style=&quot;margin:0px;margin-top:4px;text-align:center;&quot;&gt;&lt;b&gt;&amp;lt;&amp;lt;Model&amp;gt;&amp;gt;&lt;br&gt;&lt;/b&gt;&lt;b&gt;Aluno&lt;/b&gt;&lt;br&gt;&lt;/p&gt;&lt;hr size=&quot;1&quot; style=&quot;border-style:solid;&quot;&gt;&lt;div style=&quot;height:2px;&quot;&gt;&lt;/div&gt;" style="verticalAlign=top;align=left;overflow=fill;html=1;whiteSpace=wrap;" parent="1" vertex="1">
          <mxGeometry x="611" y="1006" width="140" height="60" as="geometry" />
        </mxCell>
        <mxCell id="1KVN0zQxhIOZLRA4CQc6-121" value="" style="endArrow=none;html=1;rounded=0;entryX=0;entryY=0.5;entryDx=0;entryDy=0;exitX=1;exitY=0.5;exitDx=0;exitDy=0;" parent="1" source="1KVN0zQxhIOZLRA4CQc6-115" target="1KVN0zQxhIOZLRA4CQc6-117" edge="1">
          <mxGeometry width="50" height="50" relative="1" as="geometry">
            <mxPoint x="326" y="806" as="sourcePoint" />
            <mxPoint x="406" y="926" as="targetPoint" />
          </mxGeometry>
        </mxCell>
        <mxCell id="1KVN0zQxhIOZLRA4CQc6-122" value="" style="endArrow=none;html=1;rounded=0;entryX=0;entryY=0.5;entryDx=0;entryDy=0;exitX=1;exitY=0.5;exitDx=0;exitDy=0;" parent="1" source="1KVN0zQxhIOZLRA4CQc6-115" target="1KVN0zQxhIOZLRA4CQc6-119" edge="1">
          <mxGeometry width="50" height="50" relative="1" as="geometry">
            <mxPoint x="336" y="816" as="sourcePoint" />
            <mxPoint x="416" y="936" as="targetPoint" />
          </mxGeometry>
        </mxCell>
        <mxCell id="1KVN0zQxhIOZLRA4CQc6-123" value="" style="endArrow=none;html=1;rounded=0;entryX=0;entryY=0.65;entryDx=0;entryDy=0;exitX=1;exitY=0.5;exitDx=0;exitDy=0;entryPerimeter=0;" parent="1" source="1KVN0zQxhIOZLRA4CQc6-115" target="1KVN0zQxhIOZLRA4CQc6-120" edge="1">
          <mxGeometry width="50" height="50" relative="1" as="geometry">
            <mxPoint x="346" y="826" as="sourcePoint" />
            <mxPoint x="426" y="946" as="targetPoint" />
          </mxGeometry>
        </mxCell>
        <mxCell id="1KVN0zQxhIOZLRA4CQc6-124" value="" style="endArrow=open;html=1;rounded=0;entryX=0.5;entryY=1;entryDx=0;entryDy=0;endFill=0;endSize=12;" parent="1" source="1KVN0zQxhIOZLRA4CQc6-119" target="1KVN0zQxhIOZLRA4CQc6-117" edge="1">
          <mxGeometry width="50" height="50" relative="1" as="geometry">
            <mxPoint x="546" y="926" as="sourcePoint" />
            <mxPoint x="625" y="806" as="targetPoint" />
          </mxGeometry>
        </mxCell>
        <mxCell id="1KVN0zQxhIOZLRA4CQc6-125" value="" style="endArrow=diamondThin;html=1;rounded=0;entryX=0.5;entryY=1;entryDx=0;entryDy=0;exitX=0.5;exitY=0;exitDx=0;exitDy=0;endFill=0;endSize=12;" parent="1" source="1KVN0zQxhIOZLRA4CQc6-120" target="1KVN0zQxhIOZLRA4CQc6-119" edge="1">
          <mxGeometry width="50" height="50" relative="1" as="geometry">
            <mxPoint x="695" y="896" as="sourcePoint" />
            <mxPoint x="695" y="836" as="targetPoint" />
          </mxGeometry>
        </mxCell>
        <mxCell id="1KVN0zQxhIOZLRA4CQc6-130" value="Diagrama de Classe de Projeto" style="text;html=1;align=center;verticalAlign=middle;whiteSpace=wrap;rounded=0;fontSize=16;fontStyle=1" parent="1" vertex="1">
          <mxGeometry x="78" y="1130" width="250" height="30" as="geometry" />
        </mxCell>
        <mxCell id="EvT7SsRlxUWs8ee3FD5g-1" value="Curso" style="swimlane;fontStyle=1;align=center;verticalAlign=top;childLayout=stackLayout;horizontal=1;startSize=26;horizontalStack=0;resizeParent=1;resizeParentMax=0;resizeLast=0;collapsible=1;marginBottom=0;whiteSpace=wrap;html=1;" parent="1" vertex="1">
          <mxGeometry x="665" y="1175" width="160" height="112" as="geometry" />
        </mxCell>
        <mxCell id="EvT7SsRlxUWs8ee3FD5g-42" value="- cursoId: long" style="text;strokeColor=none;fillColor=none;align=left;verticalAlign=top;spacingLeft=4;spacingRight=4;overflow=hidden;rotatable=0;points=[[0,0.5],[1,0.5]];portConstraint=eastwest;whiteSpace=wrap;html=1;" parent="EvT7SsRlxUWs8ee3FD5g-1" vertex="1">
          <mxGeometry y="26" width="160" height="26" as="geometry" />
        </mxCell>
        <mxCell id="EvT7SsRlxUWs8ee3FD5g-5" value="- cursoNome: String" style="text;strokeColor=none;fillColor=none;align=left;verticalAlign=top;spacingLeft=4;spacingRight=4;overflow=hidden;rotatable=0;points=[[0,0.5],[1,0.5]];portConstraint=eastwest;whiteSpace=wrap;html=1;" parent="EvT7SsRlxUWs8ee3FD5g-1" vertex="1">
          <mxGeometry y="52" width="160" height="26" as="geometry" />
        </mxCell>
        <mxCell id="EvT7SsRlxUWs8ee3FD5g-3" value="" style="line;strokeWidth=1;fillColor=none;align=left;verticalAlign=middle;spacingTop=-1;spacingLeft=3;spacingRight=3;rotatable=0;labelPosition=right;points=[];portConstraint=eastwest;strokeColor=inherit;" parent="EvT7SsRlxUWs8ee3FD5g-1" vertex="1">
          <mxGeometry y="78" width="160" height="8" as="geometry" />
        </mxCell>
        <mxCell id="EvT7SsRlxUWs8ee3FD5g-4" value="+ getters &amp;amp; setters" style="text;strokeColor=none;fillColor=none;align=left;verticalAlign=top;spacingLeft=4;spacingRight=4;overflow=hidden;rotatable=0;points=[[0,0.5],[1,0.5]];portConstraint=eastwest;whiteSpace=wrap;html=1;" parent="EvT7SsRlxUWs8ee3FD5g-1" vertex="1">
          <mxGeometry y="86" width="160" height="26" as="geometry" />
        </mxCell>
        <mxCell id="EvT7SsRlxUWs8ee3FD5g-6" value="Turma" style="swimlane;fontStyle=1;align=center;verticalAlign=top;childLayout=stackLayout;horizontal=1;startSize=26;horizontalStack=0;resizeParent=1;resizeParentMax=0;resizeLast=0;collapsible=1;marginBottom=0;whiteSpace=wrap;html=1;" parent="1" vertex="1">
          <mxGeometry x="665" y="1335" width="160" height="138" as="geometry" />
        </mxCell>
        <mxCell id="EvT7SsRlxUWs8ee3FD5g-43" value="- turmaId: long" style="text;strokeColor=none;fillColor=none;align=left;verticalAlign=top;spacingLeft=4;spacingRight=4;overflow=hidden;rotatable=0;points=[[0,0.5],[1,0.5]];portConstraint=eastwest;whiteSpace=wrap;html=1;" parent="EvT7SsRlxUWs8ee3FD5g-6" vertex="1">
          <mxGeometry y="26" width="160" height="26" as="geometry" />
        </mxCell>
        <mxCell id="EvT7SsRlxUWs8ee3FD5g-7" value="- turmaAno: String" style="text;strokeColor=none;fillColor=none;align=left;verticalAlign=top;spacingLeft=4;spacingRight=4;overflow=hidden;rotatable=0;points=[[0,0.5],[1,0.5]];portConstraint=eastwest;whiteSpace=wrap;html=1;" parent="EvT7SsRlxUWs8ee3FD5g-6" vertex="1">
          <mxGeometry y="52" width="160" height="26" as="geometry" />
        </mxCell>
        <mxCell id="EvT7SsRlxUWs8ee3FD5g-10" value="- turmaSemestre: String" style="text;strokeColor=none;fillColor=none;align=left;verticalAlign=top;spacingLeft=4;spacingRight=4;overflow=hidden;rotatable=0;points=[[0,0.5],[1,0.5]];portConstraint=eastwest;whiteSpace=wrap;html=1;" parent="EvT7SsRlxUWs8ee3FD5g-6" vertex="1">
          <mxGeometry y="78" width="160" height="26" as="geometry" />
        </mxCell>
        <mxCell id="EvT7SsRlxUWs8ee3FD5g-8" value="" style="line;strokeWidth=1;fillColor=none;align=left;verticalAlign=middle;spacingTop=-1;spacingLeft=3;spacingRight=3;rotatable=0;labelPosition=right;points=[];portConstraint=eastwest;strokeColor=inherit;" parent="EvT7SsRlxUWs8ee3FD5g-6" vertex="1">
          <mxGeometry y="104" width="160" height="8" as="geometry" />
        </mxCell>
        <mxCell id="EvT7SsRlxUWs8ee3FD5g-9" value="+ getters &amp;amp; setters" style="text;strokeColor=none;fillColor=none;align=left;verticalAlign=top;spacingLeft=4;spacingRight=4;overflow=hidden;rotatable=0;points=[[0,0.5],[1,0.5]];portConstraint=eastwest;whiteSpace=wrap;html=1;" parent="EvT7SsRlxUWs8ee3FD5g-6" vertex="1">
          <mxGeometry y="112" width="160" height="26" as="geometry" />
        </mxCell>
        <mxCell id="EvT7SsRlxUWs8ee3FD5g-13" value="Aluno" style="swimlane;fontStyle=1;align=center;verticalAlign=top;childLayout=stackLayout;horizontal=1;startSize=26;horizontalStack=0;resizeParent=1;resizeParentMax=0;resizeLast=0;collapsible=1;marginBottom=0;whiteSpace=wrap;html=1;" parent="1" vertex="1">
          <mxGeometry x="665" y="1633" width="160" height="242" as="geometry" />
        </mxCell>
        <mxCell id="EvT7SsRlxUWs8ee3FD5g-93" value="- alunoId: Long" style="text;strokeColor=none;fillColor=none;align=left;verticalAlign=top;spacingLeft=4;spacingRight=4;overflow=hidden;rotatable=0;points=[[0,0.5],[1,0.5]];portConstraint=eastwest;whiteSpace=wrap;html=1;" parent="EvT7SsRlxUWs8ee3FD5g-13" vertex="1">
          <mxGeometry y="26" width="160" height="26" as="geometry" />
        </mxCell>
        <mxCell id="EvT7SsRlxUWs8ee3FD5g-17" value="- alunoNome: String" style="text;strokeColor=none;fillColor=none;align=left;verticalAlign=top;spacingLeft=4;spacingRight=4;overflow=hidden;rotatable=0;points=[[0,0.5],[1,0.5]];portConstraint=eastwest;whiteSpace=wrap;html=1;" parent="EvT7SsRlxUWs8ee3FD5g-13" vertex="1">
          <mxGeometry y="52" width="160" height="26" as="geometry" />
        </mxCell>
        <mxCell id="EvT7SsRlxUWs8ee3FD5g-23" value="- alunoFoto: String" style="text;strokeColor=none;fillColor=none;align=left;verticalAlign=top;spacingLeft=4;spacingRight=4;overflow=hidden;rotatable=0;points=[[0,0.5],[1,0.5]];portConstraint=eastwest;whiteSpace=wrap;html=1;" parent="EvT7SsRlxUWs8ee3FD5g-13" vertex="1">
          <mxGeometry y="78" width="160" height="26" as="geometry" />
        </mxCell>
        <mxCell id="EvT7SsRlxUWs8ee3FD5g-24" value="- alunoLink: String" style="text;strokeColor=none;fillColor=none;align=left;verticalAlign=top;spacingLeft=4;spacingRight=4;overflow=hidden;rotatable=0;points=[[0,0.5],[1,0.5]];portConstraint=eastwest;whiteSpace=wrap;html=1;" parent="EvT7SsRlxUWs8ee3FD5g-13" vertex="1">
          <mxGeometry y="104" width="160" height="26" as="geometry" />
        </mxCell>
        <mxCell id="EvT7SsRlxUWs8ee3FD5g-25" value="- alunoHistorico: String" style="text;strokeColor=none;fillColor=none;align=left;verticalAlign=top;spacingLeft=4;spacingRight=4;overflow=hidden;rotatable=0;points=[[0,0.5],[1,0.5]];portConstraint=eastwest;whiteSpace=wrap;html=1;" parent="EvT7SsRlxUWs8ee3FD5g-13" vertex="1">
          <mxGeometry y="130" width="160" height="26" as="geometry" />
        </mxCell>
        <mxCell id="EvT7SsRlxUWs8ee3FD5g-26" value="- alunoComentario: String" style="text;strokeColor=none;fillColor=none;align=left;verticalAlign=top;spacingLeft=4;spacingRight=4;overflow=hidden;rotatable=0;points=[[0,0.5],[1,0.5]];portConstraint=eastwest;whiteSpace=wrap;html=1;" parent="EvT7SsRlxUWs8ee3FD5g-13" vertex="1">
          <mxGeometry y="156" width="160" height="26" as="geometry" />
        </mxCell>
        <mxCell id="EvT7SsRlxUWs8ee3FD5g-27" value="- alunoPermissao: boolean" style="text;strokeColor=none;fillColor=none;align=left;verticalAlign=top;spacingLeft=4;spacingRight=4;overflow=hidden;rotatable=0;points=[[0,0.5],[1,0.5]];portConstraint=eastwest;whiteSpace=wrap;html=1;" parent="EvT7SsRlxUWs8ee3FD5g-13" vertex="1">
          <mxGeometry y="182" width="160" height="26" as="geometry" />
        </mxCell>
        <mxCell id="EvT7SsRlxUWs8ee3FD5g-15" value="" style="line;strokeWidth=1;fillColor=none;align=left;verticalAlign=middle;spacingTop=-1;spacingLeft=3;spacingRight=3;rotatable=0;labelPosition=right;points=[];portConstraint=eastwest;strokeColor=inherit;" parent="EvT7SsRlxUWs8ee3FD5g-13" vertex="1">
          <mxGeometry y="208" width="160" height="8" as="geometry" />
        </mxCell>
        <mxCell id="EvT7SsRlxUWs8ee3FD5g-16" value="+ getters &amp;amp; setters" style="text;strokeColor=none;fillColor=none;align=left;verticalAlign=top;spacingLeft=4;spacingRight=4;overflow=hidden;rotatable=0;points=[[0,0.5],[1,0.5]];portConstraint=eastwest;whiteSpace=wrap;html=1;" parent="EvT7SsRlxUWs8ee3FD5g-13" vertex="1">
          <mxGeometry y="216" width="160" height="26" as="geometry" />
        </mxCell>
        <mxCell id="EvT7SsRlxUWs8ee3FD5g-18" value="" style="endArrow=open;html=1;rounded=0;entryX=0.5;entryY=1;entryDx=0;entryDy=0;exitX=0.5;exitY=0;exitDx=0;exitDy=0;endFill=0;" parent="1" source="EvT7SsRlxUWs8ee3FD5g-6" target="EvT7SsRlxUWs8ee3FD5g-1" edge="1">
          <mxGeometry width="50" height="50" relative="1" as="geometry">
            <mxPoint x="425" y="1495" as="sourcePoint" />
            <mxPoint x="475" y="1445" as="targetPoint" />
          </mxGeometry>
        </mxCell>
        <mxCell id="EvT7SsRlxUWs8ee3FD5g-20" value="&lt;p style=&quot;margin:0px;margin-top:4px;text-align:center;&quot;&gt;&lt;b&gt;Set&amp;lt;Aluno&amp;gt;&lt;/b&gt;&lt;br&gt;&lt;/p&gt;&lt;hr size=&quot;1&quot; style=&quot;border-style:solid;&quot;&gt;&lt;div style=&quot;height:2px;&quot;&gt;&lt;/div&gt;" style="verticalAlign=top;align=left;overflow=fill;html=1;whiteSpace=wrap;" parent="1" vertex="1">
          <mxGeometry x="675" y="1528" width="140" height="60" as="geometry" />
        </mxCell>
        <mxCell id="EvT7SsRlxUWs8ee3FD5g-21" value="" style="endArrow=none;html=1;rounded=0;entryX=0.5;entryY=0;entryDx=0;entryDy=0;exitX=0.5;exitY=1;exitDx=0;exitDy=0;endFill=0;" parent="1" source="EvT7SsRlxUWs8ee3FD5g-6" target="EvT7SsRlxUWs8ee3FD5g-20" edge="1">
          <mxGeometry width="50" height="50" relative="1" as="geometry">
            <mxPoint x="735" y="1405" as="sourcePoint" />
            <mxPoint x="735" y="1317" as="targetPoint" />
          </mxGeometry>
        </mxCell>
        <mxCell id="EvT7SsRlxUWs8ee3FD5g-22" value="" style="endArrow=none;html=1;rounded=0;entryX=0.5;entryY=1;entryDx=0;entryDy=0;exitX=0.5;exitY=0;exitDx=0;exitDy=0;startArrow=open;startFill=0;dashed=1;" parent="1" source="EvT7SsRlxUWs8ee3FD5g-13" target="EvT7SsRlxUWs8ee3FD5g-20" edge="1">
          <mxGeometry width="50" height="50" relative="1" as="geometry">
            <mxPoint x="535" y="1625" as="sourcePoint" />
            <mxPoint x="585" y="1575" as="targetPoint" />
          </mxGeometry>
        </mxCell>
        <mxCell id="EvT7SsRlxUWs8ee3FD5g-28" value="&amp;lt;&amp;lt;Interface&amp;gt;&amp;gt;&lt;br&gt;RegistroControle &amp;lt;T&amp;gt;" style="swimlane;fontStyle=1;align=center;verticalAlign=top;childLayout=stackLayout;horizontal=1;startSize=40;horizontalStack=0;resizeParent=1;resizeParentMax=0;resizeLast=0;collapsible=1;marginBottom=0;whiteSpace=wrap;html=1;" parent="1" vertex="1">
          <mxGeometry x="210" y="1411" width="210" height="180" as="geometry" />
        </mxCell>
        <mxCell id="EvT7SsRlxUWs8ee3FD5g-30" value="" style="line;strokeWidth=1;fillColor=none;align=left;verticalAlign=middle;spacingTop=-1;spacingLeft=3;spacingRight=3;rotatable=0;labelPosition=right;points=[];portConstraint=eastwest;strokeColor=inherit;" parent="EvT7SsRlxUWs8ee3FD5g-28" vertex="1">
          <mxGeometry y="40" width="210" height="8" as="geometry" />
        </mxCell>
        <mxCell id="EvT7SsRlxUWs8ee3FD5g-90" value="+ criarRegistro(T)" style="text;strokeColor=none;fillColor=none;align=left;verticalAlign=top;spacingLeft=4;spacingRight=4;overflow=hidden;rotatable=0;points=[[0,0.5],[1,0.5]];portConstraint=eastwest;whiteSpace=wrap;html=1;" parent="EvT7SsRlxUWs8ee3FD5g-28" vertex="1">
          <mxGeometry y="48" width="210" height="26" as="geometry" />
        </mxCell>
        <mxCell id="EvT7SsRlxUWs8ee3FD5g-91" value="+ buscarRegistro(id)" style="text;strokeColor=none;fillColor=none;align=left;verticalAlign=top;spacingLeft=4;spacingRight=4;overflow=hidden;rotatable=0;points=[[0,0.5],[1,0.5]];portConstraint=eastwest;whiteSpace=wrap;html=1;" parent="EvT7SsRlxUWs8ee3FD5g-28" vertex="1">
          <mxGeometry y="74" width="210" height="26" as="geometry" />
        </mxCell>
        <mxCell id="EvT7SsRlxUWs8ee3FD5g-77" value="+ atualizarRegistro(T)" style="text;strokeColor=none;fillColor=none;align=left;verticalAlign=top;spacingLeft=4;spacingRight=4;overflow=hidden;rotatable=0;points=[[0,0.5],[1,0.5]];portConstraint=eastwest;whiteSpace=wrap;html=1;" parent="EvT7SsRlxUWs8ee3FD5g-28" vertex="1">
          <mxGeometry y="100" width="210" height="26" as="geometry" />
        </mxCell>
        <mxCell id="EvT7SsRlxUWs8ee3FD5g-92" value="+ deletarRegistro(T)" style="text;strokeColor=none;fillColor=none;align=left;verticalAlign=top;spacingLeft=4;spacingRight=4;overflow=hidden;rotatable=0;points=[[0,0.5],[1,0.5]];portConstraint=eastwest;whiteSpace=wrap;html=1;" parent="EvT7SsRlxUWs8ee3FD5g-28" vertex="1">
          <mxGeometry y="126" width="210" height="26" as="geometry" />
        </mxCell>
        <mxCell id="DcCdLXvu-ToFqq5gJT1J-1" value="+ buscarTodosRegistros(): List&amp;lt;T&amp;gt;" style="text;strokeColor=none;fillColor=none;align=left;verticalAlign=top;spacingLeft=4;spacingRight=4;overflow=hidden;rotatable=0;points=[[0,0.5],[1,0.5]];portConstraint=eastwest;whiteSpace=wrap;html=1;" vertex="1" parent="EvT7SsRlxUWs8ee3FD5g-28">
          <mxGeometry y="152" width="210" height="28" as="geometry" />
        </mxCell>
        <mxCell id="EvT7SsRlxUWs8ee3FD5g-32" value="&amp;lt;&amp;lt;Interface&amp;gt;&amp;gt;&lt;br&gt;DAO &amp;lt;T&amp;gt;" style="swimlane;fontStyle=1;align=center;verticalAlign=top;childLayout=stackLayout;horizontal=1;startSize=40;horizontalStack=0;resizeParent=1;resizeParentMax=0;resizeLast=0;collapsible=1;marginBottom=0;whiteSpace=wrap;html=1;" parent="1" vertex="1">
          <mxGeometry x="235" y="1195" width="160" height="178" as="geometry" />
        </mxCell>
        <mxCell id="EvT7SsRlxUWs8ee3FD5g-33" value="" style="line;strokeWidth=1;fillColor=none;align=left;verticalAlign=middle;spacingTop=-1;spacingLeft=3;spacingRight=3;rotatable=0;labelPosition=right;points=[];portConstraint=eastwest;strokeColor=inherit;" parent="EvT7SsRlxUWs8ee3FD5g-32" vertex="1">
          <mxGeometry y="40" width="160" height="8" as="geometry" />
        </mxCell>
        <mxCell id="EvT7SsRlxUWs8ee3FD5g-34" value="+ criar(T): T" style="text;strokeColor=none;fillColor=none;align=left;verticalAlign=top;spacingLeft=4;spacingRight=4;overflow=hidden;rotatable=0;points=[[0,0.5],[1,0.5]];portConstraint=eastwest;whiteSpace=wrap;html=1;" parent="EvT7SsRlxUWs8ee3FD5g-32" vertex="1">
          <mxGeometry y="48" width="160" height="26" as="geometry" />
        </mxCell>
        <mxCell id="EvT7SsRlxUWs8ee3FD5g-46" value="+ buscar(id): T" style="text;strokeColor=none;fillColor=none;align=left;verticalAlign=top;spacingLeft=4;spacingRight=4;overflow=hidden;rotatable=0;points=[[0,0.5],[1,0.5]];portConstraint=eastwest;whiteSpace=wrap;html=1;" parent="EvT7SsRlxUWs8ee3FD5g-32" vertex="1">
          <mxGeometry y="74" width="160" height="26" as="geometry" />
        </mxCell>
        <mxCell id="EvT7SsRlxUWs8ee3FD5g-44" value="+ atualizar(T): T" style="text;strokeColor=none;fillColor=none;align=left;verticalAlign=top;spacingLeft=4;spacingRight=4;overflow=hidden;rotatable=0;points=[[0,0.5],[1,0.5]];portConstraint=eastwest;whiteSpace=wrap;html=1;" parent="EvT7SsRlxUWs8ee3FD5g-32" vertex="1">
          <mxGeometry y="100" width="160" height="26" as="geometry" />
        </mxCell>
        <mxCell id="EvT7SsRlxUWs8ee3FD5g-45" value="+ deletar(T): void" style="text;strokeColor=none;fillColor=none;align=left;verticalAlign=top;spacingLeft=4;spacingRight=4;overflow=hidden;rotatable=0;points=[[0,0.5],[1,0.5]];portConstraint=eastwest;whiteSpace=wrap;html=1;" parent="EvT7SsRlxUWs8ee3FD5g-32" vertex="1">
          <mxGeometry y="126" width="160" height="26" as="geometry" />
        </mxCell>
        <mxCell id="DcCdLXvu-ToFqq5gJT1J-2" value="+ listar(): List&amp;lt;T&amp;gt;" style="text;strokeColor=none;fillColor=none;align=left;verticalAlign=top;spacingLeft=4;spacingRight=4;overflow=hidden;rotatable=0;points=[[0,0.5],[1,0.5]];portConstraint=eastwest;whiteSpace=wrap;html=1;" vertex="1" parent="EvT7SsRlxUWs8ee3FD5g-32">
          <mxGeometry y="152" width="160" height="26" as="geometry" />
        </mxCell>
        <mxCell id="EvT7SsRlxUWs8ee3FD5g-36" value="" style="endArrow=none;html=1;rounded=0;entryX=0;entryY=0.3333333333333333;entryDx=0;entryDy=0;entryPerimeter=0;exitX=1;exitY=0.5;exitDx=0;exitDy=0;" parent="1" source="jtaIMVUOKQbFZ3Qx_FAC-8" target="1KVN0zQxhIOZLRA4CQc6-106" edge="1">
          <mxGeometry width="50" height="50" relative="1" as="geometry">
            <mxPoint x="423" y="492" as="sourcePoint" />
            <mxPoint x="473" y="442" as="targetPoint" />
          </mxGeometry>
        </mxCell>
        <mxCell id="EvT7SsRlxUWs8ee3FD5g-37" value="" style="endArrow=block;endSize=16;endFill=0;html=1;rounded=0;" parent="1" edge="1">
          <mxGeometry width="160" relative="1" as="geometry">
            <mxPoint x="758" y="349" as="sourcePoint" />
            <mxPoint x="758" y="429" as="targetPoint" />
          </mxGeometry>
        </mxCell>
        <mxCell id="EvT7SsRlxUWs8ee3FD5g-40" value="&lt;p style=&quot;margin:0px;margin-top:4px;text-align:center;&quot;&gt;&lt;b&gt;&amp;lt;&amp;lt;View&amp;gt;&amp;gt;&lt;br&gt;Atualizacao&lt;/b&gt;&lt;b&gt;Tela&lt;/b&gt;&lt;/p&gt;&lt;hr size=&quot;1&quot; style=&quot;border-style:solid;&quot;&gt;&lt;div style=&quot;height:2px;&quot;&gt;&lt;/div&gt;" style="verticalAlign=top;align=left;overflow=fill;html=1;whiteSpace=wrap;" parent="1" vertex="1">
          <mxGeometry x="176" y="886" width="140" height="60" as="geometry" />
        </mxCell>
        <mxCell id="EvT7SsRlxUWs8ee3FD5g-41" value="" style="endArrow=none;html=1;rounded=0;entryX=0;entryY=0.5;entryDx=0;entryDy=0;exitX=1;exitY=0.5;exitDx=0;exitDy=0;" parent="1" source="EvT7SsRlxUWs8ee3FD5g-40" target="1KVN0zQxhIOZLRA4CQc6-115" edge="1">
          <mxGeometry width="50" height="50" relative="1" as="geometry">
            <mxPoint x="438" y="1026" as="sourcePoint" />
            <mxPoint x="488" y="976" as="targetPoint" />
          </mxGeometry>
        </mxCell>
        <mxCell id="EvT7SsRlxUWs8ee3FD5g-47" value="CursoDAO" style="swimlane;fontStyle=1;align=center;verticalAlign=top;childLayout=stackLayout;horizontal=1;startSize=26;horizontalStack=0;resizeParent=1;resizeParentMax=0;resizeLast=0;collapsible=1;marginBottom=0;whiteSpace=wrap;html=1;" parent="1" vertex="1">
          <mxGeometry x="465" y="1223" width="160" height="34" as="geometry" />
        </mxCell>
        <mxCell id="EvT7SsRlxUWs8ee3FD5g-50" value="" style="line;strokeWidth=1;fillColor=none;align=left;verticalAlign=middle;spacingTop=-1;spacingLeft=3;spacingRight=3;rotatable=0;labelPosition=right;points=[];portConstraint=eastwest;strokeColor=inherit;" parent="EvT7SsRlxUWs8ee3FD5g-47" vertex="1">
          <mxGeometry y="26" width="160" height="8" as="geometry" />
        </mxCell>
        <mxCell id="EvT7SsRlxUWs8ee3FD5g-52" value="TurmaDAO" style="swimlane;fontStyle=1;align=center;verticalAlign=top;childLayout=stackLayout;horizontal=1;startSize=26;horizontalStack=0;resizeParent=1;resizeParentMax=0;resizeLast=0;collapsible=1;marginBottom=0;whiteSpace=wrap;html=1;" parent="1" vertex="1">
          <mxGeometry x="470" y="1383" width="160" height="34" as="geometry" />
        </mxCell>
        <mxCell id="EvT7SsRlxUWs8ee3FD5g-56" value="" style="line;strokeWidth=1;fillColor=none;align=left;verticalAlign=middle;spacingTop=-1;spacingLeft=3;spacingRight=3;rotatable=0;labelPosition=right;points=[];portConstraint=eastwest;strokeColor=inherit;" parent="EvT7SsRlxUWs8ee3FD5g-52" vertex="1">
          <mxGeometry y="26" width="160" height="8" as="geometry" />
        </mxCell>
        <mxCell id="EvT7SsRlxUWs8ee3FD5g-58" value="AlunoDAO" style="swimlane;fontStyle=1;align=center;verticalAlign=top;childLayout=stackLayout;horizontal=1;startSize=26;horizontalStack=0;resizeParent=1;resizeParentMax=0;resizeLast=0;collapsible=1;marginBottom=0;whiteSpace=wrap;html=1;" parent="1" vertex="1">
          <mxGeometry x="470" y="1733" width="160" height="34" as="geometry" />
        </mxCell>
        <mxCell id="EvT7SsRlxUWs8ee3FD5g-65" value="" style="line;strokeWidth=1;fillColor=none;align=left;verticalAlign=middle;spacingTop=-1;spacingLeft=3;spacingRight=3;rotatable=0;labelPosition=right;points=[];portConstraint=eastwest;strokeColor=inherit;" parent="EvT7SsRlxUWs8ee3FD5g-58" vertex="1">
          <mxGeometry y="26" width="160" height="8" as="geometry" />
        </mxCell>
        <mxCell id="EvT7SsRlxUWs8ee3FD5g-67" value="" style="endArrow=open;html=1;rounded=0;entryX=0;entryY=0.5;entryDx=0;entryDy=0;exitX=1;exitY=0.5;exitDx=0;exitDy=0;endFill=0;" parent="1" source="EvT7SsRlxUWs8ee3FD5g-47" target="EvT7SsRlxUWs8ee3FD5g-5" edge="1">
          <mxGeometry width="50" height="50" relative="1" as="geometry">
            <mxPoint x="425" y="1435" as="sourcePoint" />
            <mxPoint x="475" y="1385" as="targetPoint" />
          </mxGeometry>
        </mxCell>
        <mxCell id="EvT7SsRlxUWs8ee3FD5g-68" value="" style="endArrow=open;html=1;rounded=0;exitX=1;exitY=0.5;exitDx=0;exitDy=0;entryX=0;entryY=0.5;entryDx=0;entryDy=0;endFill=0;" parent="1" source="EvT7SsRlxUWs8ee3FD5g-52" target="EvT7SsRlxUWs8ee3FD5g-7" edge="1">
          <mxGeometry width="50" height="50" relative="1" as="geometry">
            <mxPoint x="610" y="1423" as="sourcePoint" />
            <mxPoint x="610" y="1465" as="targetPoint" />
          </mxGeometry>
        </mxCell>
        <mxCell id="EvT7SsRlxUWs8ee3FD5g-69" value="" style="endArrow=open;html=1;rounded=0;entryX=0;entryY=0.5;entryDx=0;entryDy=0;exitX=1;exitY=0.5;exitDx=0;exitDy=0;endFill=0;" parent="1" source="EvT7SsRlxUWs8ee3FD5g-58" target="EvT7SsRlxUWs8ee3FD5g-24" edge="1">
          <mxGeometry width="50" height="50" relative="1" as="geometry">
            <mxPoint x="435" y="1615" as="sourcePoint" />
            <mxPoint x="485" y="1565" as="targetPoint" />
          </mxGeometry>
        </mxCell>
        <mxCell id="EvT7SsRlxUWs8ee3FD5g-70" value="" style="endArrow=block;dashed=1;endFill=0;endSize=12;html=1;rounded=0;exitX=0;exitY=0.5;exitDx=0;exitDy=0;entryX=1;entryY=0.5;entryDx=0;entryDy=0;" parent="1" source="EvT7SsRlxUWs8ee3FD5g-52" target="EvT7SsRlxUWs8ee3FD5g-46" edge="1">
          <mxGeometry width="160" relative="1" as="geometry">
            <mxPoint x="365" y="1495" as="sourcePoint" />
            <mxPoint x="525" y="1495" as="targetPoint" />
            <Array as="points">
              <mxPoint x="450" y="1400" />
              <mxPoint x="450" y="1282" />
            </Array>
          </mxGeometry>
        </mxCell>
        <mxCell id="EvT7SsRlxUWs8ee3FD5g-74" value="" style="endArrow=open;html=1;rounded=0;exitX=0.5;exitY=0;exitDx=0;exitDy=0;entryX=0.5;entryY=1;entryDx=0;entryDy=0;endFill=0;" parent="1" source="EvT7SsRlxUWs8ee3FD5g-28" target="EvT7SsRlxUWs8ee3FD5g-32" edge="1">
          <mxGeometry width="50" height="50" relative="1" as="geometry">
            <mxPoint x="265" y="1485" as="sourcePoint" />
            <mxPoint x="315" y="1435" as="targetPoint" />
          </mxGeometry>
        </mxCell>
        <mxCell id="EvT7SsRlxUWs8ee3FD5g-79" value="" style="endArrow=block;dashed=1;endFill=0;endSize=12;html=1;rounded=0;entryX=1;entryY=0.25;entryDx=0;entryDy=0;exitX=0;exitY=0.5;exitDx=0;exitDy=0;" parent="1" source="EvT7SsRlxUWs8ee3FD5g-47" target="EvT7SsRlxUWs8ee3FD5g-32" edge="1">
          <mxGeometry width="160" relative="1" as="geometry">
            <mxPoint x="365" y="1405" as="sourcePoint" />
            <mxPoint x="525" y="1405" as="targetPoint" />
            <Array as="points">
              <mxPoint x="450" y="1240" />
            </Array>
          </mxGeometry>
        </mxCell>
        <mxCell id="EvT7SsRlxUWs8ee3FD5g-80" value="" style="endArrow=block;dashed=1;endFill=0;endSize=12;html=1;rounded=0;entryX=1.002;entryY=0.179;entryDx=0;entryDy=0;exitX=0;exitY=0.5;exitDx=0;exitDy=0;entryPerimeter=0;" parent="1" source="EvT7SsRlxUWs8ee3FD5g-58" target="EvT7SsRlxUWs8ee3FD5g-45" edge="1">
          <mxGeometry width="160" relative="1" as="geometry">
            <mxPoint x="365" y="1405" as="sourcePoint" />
            <mxPoint x="525" y="1405" as="targetPoint" />
            <Array as="points">
              <mxPoint x="430" y="1750" />
              <mxPoint x="430" y="1326" />
            </Array>
          </mxGeometry>
        </mxCell>
        <mxCell id="EvT7SsRlxUWs8ee3FD5g-82" value="BuscaTela" style="swimlane;fontStyle=1;align=center;verticalAlign=top;childLayout=stackLayout;horizontal=1;startSize=26;horizontalStack=0;resizeParent=1;resizeParentMax=0;resizeLast=0;collapsible=1;marginBottom=0;whiteSpace=wrap;html=1;" parent="1" vertex="1">
          <mxGeometry x="16" y="1541" width="170" height="34" as="geometry" />
        </mxCell>
        <mxCell id="EvT7SsRlxUWs8ee3FD5g-83" value="" style="line;strokeWidth=1;fillColor=none;align=left;verticalAlign=middle;spacingTop=-1;spacingLeft=3;spacingRight=3;rotatable=0;labelPosition=right;points=[];portConstraint=eastwest;strokeColor=inherit;" parent="EvT7SsRlxUWs8ee3FD5g-82" vertex="1">
          <mxGeometry y="26" width="170" height="8" as="geometry" />
        </mxCell>
        <mxCell id="EvT7SsRlxUWs8ee3FD5g-86" value="AtualizacaoTela" style="swimlane;fontStyle=1;align=center;verticalAlign=top;childLayout=stackLayout;horizontal=1;startSize=26;horizontalStack=0;resizeParent=1;resizeParentMax=0;resizeLast=0;collapsible=1;marginBottom=0;whiteSpace=wrap;html=1;" parent="1" vertex="1">
          <mxGeometry x="16" y="1481" width="170" height="34" as="geometry" />
        </mxCell>
        <mxCell id="EvT7SsRlxUWs8ee3FD5g-87" value="" style="line;strokeWidth=1;fillColor=none;align=left;verticalAlign=middle;spacingTop=-1;spacingLeft=3;spacingRight=3;rotatable=0;labelPosition=right;points=[];portConstraint=eastwest;strokeColor=inherit;" parent="EvT7SsRlxUWs8ee3FD5g-86" vertex="1">
          <mxGeometry y="26" width="170" height="8" as="geometry" />
        </mxCell>
        <mxCell id="EvT7SsRlxUWs8ee3FD5g-88" value="CadastroTela" style="swimlane;fontStyle=1;align=center;verticalAlign=top;childLayout=stackLayout;horizontal=1;startSize=26;horizontalStack=0;resizeParent=1;resizeParentMax=0;resizeLast=0;collapsible=1;marginBottom=0;whiteSpace=wrap;html=1;" parent="1" vertex="1">
          <mxGeometry x="16" y="1423" width="170" height="34" as="geometry" />
        </mxCell>
        <mxCell id="EvT7SsRlxUWs8ee3FD5g-89" value="" style="line;strokeWidth=1;fillColor=none;align=left;verticalAlign=middle;spacingTop=-1;spacingLeft=3;spacingRight=3;rotatable=0;labelPosition=right;points=[];portConstraint=eastwest;strokeColor=inherit;" parent="EvT7SsRlxUWs8ee3FD5g-88" vertex="1">
          <mxGeometry y="26" width="170" height="8" as="geometry" />
        </mxCell>
        <mxCell id="EvT7SsRlxUWs8ee3FD5g-94" value="" style="endArrow=none;html=1;rounded=0;entryX=0;entryY=0.5;entryDx=0;entryDy=0;exitX=1;exitY=0.5;exitDx=0;exitDy=0;" parent="1" source="EvT7SsRlxUWs8ee3FD5g-88" target="EvT7SsRlxUWs8ee3FD5g-90" edge="1">
          <mxGeometry width="50" height="50" relative="1" as="geometry">
            <mxPoint x="425" y="1511" as="sourcePoint" />
            <mxPoint x="475" y="1461" as="targetPoint" />
          </mxGeometry>
        </mxCell>
        <mxCell id="EvT7SsRlxUWs8ee3FD5g-95" value="" style="endArrow=none;html=1;rounded=0;entryX=1;entryY=0.5;entryDx=0;entryDy=0;exitX=0;exitY=0.5;exitDx=0;exitDy=0;" parent="1" source="EvT7SsRlxUWs8ee3FD5g-91" target="EvT7SsRlxUWs8ee3FD5g-86" edge="1">
          <mxGeometry width="50" height="50" relative="1" as="geometry">
            <mxPoint x="425" y="1511" as="sourcePoint" />
            <mxPoint x="475" y="1461" as="targetPoint" />
          </mxGeometry>
        </mxCell>
        <mxCell id="EvT7SsRlxUWs8ee3FD5g-97" value="" style="endArrow=none;html=1;rounded=0;entryX=0;entryY=0.5;entryDx=0;entryDy=0;exitX=1;exitY=0.5;exitDx=0;exitDy=0;" parent="1" source="EvT7SsRlxUWs8ee3FD5g-82" target="EvT7SsRlxUWs8ee3FD5g-77" edge="1">
          <mxGeometry width="50" height="50" relative="1" as="geometry">
            <mxPoint x="425" y="1511" as="sourcePoint" />
            <mxPoint x="475" y="1461" as="targetPoint" />
          </mxGeometry>
        </mxCell>
        <mxCell id="EvT7SsRlxUWs8ee3FD5g-98" value="CursoControle" style="swimlane;fontStyle=1;align=center;verticalAlign=top;childLayout=stackLayout;horizontal=1;startSize=26;horizontalStack=0;resizeParent=1;resizeParentMax=0;resizeLast=0;collapsible=1;marginBottom=0;whiteSpace=wrap;html=1;" parent="1" vertex="1">
          <mxGeometry x="63" y="1651" width="160" height="34" as="geometry" />
        </mxCell>
        <mxCell id="EvT7SsRlxUWs8ee3FD5g-99" value="" style="line;strokeWidth=1;fillColor=none;align=left;verticalAlign=middle;spacingTop=-1;spacingLeft=3;spacingRight=3;rotatable=0;labelPosition=right;points=[];portConstraint=eastwest;strokeColor=inherit;" parent="EvT7SsRlxUWs8ee3FD5g-98" vertex="1">
          <mxGeometry y="26" width="160" height="8" as="geometry" />
        </mxCell>
        <mxCell id="EvT7SsRlxUWs8ee3FD5g-100" value="TurmaControle" style="swimlane;fontStyle=1;align=center;verticalAlign=top;childLayout=stackLayout;horizontal=1;startSize=26;horizontalStack=0;resizeParent=1;resizeParentMax=0;resizeLast=0;collapsible=1;marginBottom=0;whiteSpace=wrap;html=1;" parent="1" vertex="1">
          <mxGeometry x="65" y="1711" width="160" height="34" as="geometry" />
        </mxCell>
        <mxCell id="EvT7SsRlxUWs8ee3FD5g-101" value="" style="line;strokeWidth=1;fillColor=none;align=left;verticalAlign=middle;spacingTop=-1;spacingLeft=3;spacingRight=3;rotatable=0;labelPosition=right;points=[];portConstraint=eastwest;strokeColor=inherit;" parent="EvT7SsRlxUWs8ee3FD5g-100" vertex="1">
          <mxGeometry y="26" width="160" height="8" as="geometry" />
        </mxCell>
        <mxCell id="EvT7SsRlxUWs8ee3FD5g-102" value="AlunoControle" style="swimlane;fontStyle=1;align=center;verticalAlign=top;childLayout=stackLayout;horizontal=1;startSize=26;horizontalStack=0;resizeParent=1;resizeParentMax=0;resizeLast=0;collapsible=1;marginBottom=0;whiteSpace=wrap;html=1;" parent="1" vertex="1">
          <mxGeometry x="65" y="1773" width="160" height="34" as="geometry" />
        </mxCell>
        <mxCell id="EvT7SsRlxUWs8ee3FD5g-103" value="" style="line;strokeWidth=1;fillColor=none;align=left;verticalAlign=middle;spacingTop=-1;spacingLeft=3;spacingRight=3;rotatable=0;labelPosition=right;points=[];portConstraint=eastwest;strokeColor=inherit;" parent="EvT7SsRlxUWs8ee3FD5g-102" vertex="1">
          <mxGeometry y="26" width="160" height="8" as="geometry" />
        </mxCell>
        <mxCell id="EvT7SsRlxUWs8ee3FD5g-104" value="" style="endArrow=block;dashed=1;endFill=0;endSize=12;html=1;rounded=0;exitX=1;exitY=0.5;exitDx=0;exitDy=0;entryX=0.25;entryY=1;entryDx=0;entryDy=0;" parent="1" source="EvT7SsRlxUWs8ee3FD5g-98" target="EvT7SsRlxUWs8ee3FD5g-28" edge="1">
          <mxGeometry width="160" relative="1" as="geometry">
            <mxPoint x="315" y="1621" as="sourcePoint" />
            <mxPoint x="475" y="1621" as="targetPoint" />
            <Array as="points">
              <mxPoint x="263" y="1668" />
            </Array>
          </mxGeometry>
        </mxCell>
        <mxCell id="EvT7SsRlxUWs8ee3FD5g-105" value="" style="endArrow=block;dashed=1;endFill=0;endSize=12;html=1;rounded=0;exitX=1;exitY=0.5;exitDx=0;exitDy=0;entryX=0.5;entryY=1;entryDx=0;entryDy=0;" parent="1" source="EvT7SsRlxUWs8ee3FD5g-100" target="EvT7SsRlxUWs8ee3FD5g-28" edge="1">
          <mxGeometry width="160" relative="1" as="geometry">
            <mxPoint x="285" y="1721" as="sourcePoint" />
            <mxPoint x="315" y="1601" as="targetPoint" />
            <Array as="points">
              <mxPoint x="315" y="1728" />
            </Array>
          </mxGeometry>
        </mxCell>
        <mxCell id="EvT7SsRlxUWs8ee3FD5g-106" value="" style="endArrow=block;dashed=1;endFill=0;endSize=12;html=1;rounded=0;exitX=1;exitY=0.5;exitDx=0;exitDy=0;entryX=0.75;entryY=1;entryDx=0;entryDy=0;" parent="1" source="EvT7SsRlxUWs8ee3FD5g-102" target="EvT7SsRlxUWs8ee3FD5g-28" edge="1">
          <mxGeometry width="160" relative="1" as="geometry">
            <mxPoint x="335" y="1561" as="sourcePoint" />
            <mxPoint x="495" y="1561" as="targetPoint" />
            <Array as="points">
              <mxPoint x="368" y="1790" />
            </Array>
          </mxGeometry>
        </mxCell>
        <mxCell id="1ZrsucpxDRCxFsEcYzg6-21" value="Relacionamento bi-direcional entre Turma e Aluno" style="shape=note2;boundedLbl=1;whiteSpace=wrap;html=1;size=25;verticalAlign=top;align=center;" parent="1" vertex="1">
          <mxGeometry x="501" y="1452" width="120" height="84" as="geometry" />
        </mxCell>
        <mxCell id="1ZrsucpxDRCxFsEcYzg6-23" value="" style="endArrow=none;dashed=1;html=1;rounded=0;exitX=0;exitY=0;exitDx=120;exitDy=54.5;exitPerimeter=0;" parent="1" source="1ZrsucpxDRCxFsEcYzg6-21" edge="1">
          <mxGeometry width="50" height="50" relative="1" as="geometry">
            <mxPoint x="616" y="1505.5" as="sourcePoint" />
            <mxPoint x="745" y="1506" as="targetPoint" />
          </mxGeometry>
        </mxCell>
        <mxCell id="DcCdLXvu-ToFqq5gJT1J-4" value="SGBD" style="text;html=1;align=center;verticalAlign=middle;whiteSpace=wrap;rounded=0;" vertex="1" parent="1">
          <mxGeometry x="479" y="803" width="60" height="30" as="geometry" />
        </mxCell>
        <mxCell id="DcCdLXvu-ToFqq5gJT1J-5" value="" style="shape=datastore;whiteSpace=wrap;html=1;" vertex="1" parent="1">
          <mxGeometry x="479" y="746" width="60" height="60" as="geometry" />
        </mxCell>
        <mxCell id="DcCdLXvu-ToFqq5gJT1J-6" value="" style="endArrow=none;html=1;rounded=0;entryX=0;entryY=0.5;entryDx=0;entryDy=0;exitX=0.25;exitY=0;exitDx=0;exitDy=0;" edge="1" parent="1" source="1KVN0zQxhIOZLRA4CQc6-115" target="DcCdLXvu-ToFqq5gJT1J-5">
          <mxGeometry width="50" height="50" relative="1" as="geometry">
            <mxPoint x="388" y="846" as="sourcePoint" />
            <mxPoint x="438" y="796" as="targetPoint" />
            <Array as="points">
              <mxPoint x="431" y="776" />
            </Array>
          </mxGeometry>
        </mxCell>
        <mxCell id="DcCdLXvu-ToFqq5gJT1J-7" value="Usuário" style="shape=umlActor;verticalLabelPosition=bottom;verticalAlign=top;html=1;" vertex="1" parent="1">
          <mxGeometry x="98" y="986" width="30" height="60" as="geometry" />
        </mxCell>
        <mxCell id="DcCdLXvu-ToFqq5gJT1J-8" value="Aluno" style="shape=umlActor;verticalLabelPosition=bottom;verticalAlign=top;html=1;" vertex="1" parent="1">
          <mxGeometry x="98" y="896" width="30" height="60" as="geometry" />
        </mxCell>
        <mxCell id="DcCdLXvu-ToFqq5gJT1J-9" value="Administrador" style="shape=umlActor;verticalLabelPosition=bottom;verticalAlign=top;html=1;" vertex="1" parent="1">
          <mxGeometry x="101" y="806" width="30" height="60" as="geometry" />
        </mxCell>
        <mxCell id="DcCdLXvu-ToFqq5gJT1J-10" value="" style="endArrow=none;html=1;rounded=0;exitX=1;exitY=0.3333333333333333;exitDx=0;exitDy=0;exitPerimeter=0;entryX=0;entryY=0.5;entryDx=0;entryDy=0;" edge="1" parent="1" source="DcCdLXvu-ToFqq5gJT1J-7" target="1KVN0zQxhIOZLRA4CQc6-98">
          <mxGeometry width="50" height="50" relative="1" as="geometry">
            <mxPoint x="438" y="966" as="sourcePoint" />
            <mxPoint x="488" y="916" as="targetPoint" />
          </mxGeometry>
        </mxCell>
        <mxCell id="DcCdLXvu-ToFqq5gJT1J-11" value="" style="endArrow=none;html=1;rounded=0;entryX=0;entryY=0.5;entryDx=0;entryDy=0;exitX=1;exitY=0.3333333333333333;exitDx=0;exitDy=0;exitPerimeter=0;" edge="1" parent="1" source="DcCdLXvu-ToFqq5gJT1J-8" target="EvT7SsRlxUWs8ee3FD5g-40">
          <mxGeometry width="50" height="50" relative="1" as="geometry">
            <mxPoint x="438" y="966" as="sourcePoint" />
            <mxPoint x="488" y="916" as="targetPoint" />
          </mxGeometry>
        </mxCell>
        <mxCell id="DcCdLXvu-ToFqq5gJT1J-12" value="" style="endArrow=none;html=1;rounded=0;entryX=0;entryY=0.5;entryDx=0;entryDy=0;exitX=1;exitY=0.3333333333333333;exitDx=0;exitDy=0;exitPerimeter=0;" edge="1" parent="1" source="DcCdLXvu-ToFqq5gJT1J-9" target="1KVN0zQxhIOZLRA4CQc6-97">
          <mxGeometry width="50" height="50" relative="1" as="geometry">
            <mxPoint x="438" y="966" as="sourcePoint" />
            <mxPoint x="488" y="916" as="targetPoint" />
          </mxGeometry>
        </mxCell>
        <mxCell id="DcCdLXvu-ToFqq5gJT1J-13" value="&lt;div style=&quot;font-size: 14px;&quot; align=&quot;left&quot;&gt;&lt;font style=&quot;font-size: 14px;&quot;&gt;&lt;b&gt;GRUPO&lt;/b&gt;&lt;br&gt;GABRIEL CRISTIANO DA SILVA &lt;/font&gt;&lt;/div&gt;&lt;div style=&quot;font-size: 14px;&quot; align=&quot;left&quot;&gt;&lt;font style=&quot;font-size: 14px;&quot;&gt;GIOVANI AUGUSTO BETINI FITAS&lt;/font&gt;&lt;/div&gt;&lt;div style=&quot;font-size: 14px;&quot; align=&quot;left&quot;&gt;&lt;font style=&quot;font-size: 14px;&quot;&gt;GUILHERME SERAFIM BONFIM&lt;/font&gt;&lt;/div&gt;&lt;div style=&quot;font-size: 14px;&quot; align=&quot;left&quot;&gt;&lt;font style=&quot;font-size: 14px;&quot;&gt;LUCAS SARDINHA DE ARRUDA&lt;/font&gt;&lt;/div&gt;&lt;div style=&quot;font-size: 14px;&quot; align=&quot;left&quot;&gt;&lt;font style=&quot;font-size: 14px;&quot;&gt;&lt;font style=&quot;font-size: 14px;&quot;&gt;MARCELO TEMPORINI COSTA FILHO&lt;/font&gt;&lt;br&gt;&lt;/font&gt;&lt;/div&gt;" style="text;html=1;align=left;verticalAlign=middle;whiteSpace=wrap;rounded=0;" vertex="1" parent="1">
          <mxGeometry x="570" y="20" width="263" height="100" as="geometry" />
        </mxCell>
        <mxCell id="DcCdLXvu-ToFqq5gJT1J-14" value="&lt;div style=&quot;font-size: 15px;&quot; align=&quot;left&quot;&gt;&lt;font style=&quot;font-size: 15px;&quot;&gt;&lt;b&gt;LABORATÓRIO DE ENGENHARIA DE SOFTWARE&lt;/b&gt;&lt;/font&gt;&lt;/div&gt;&lt;div style=&quot;font-size: 15px;&quot; align=&quot;left&quot;&gt;&lt;font style=&quot;font-size: 15px;&quot;&gt;&lt;b&gt;PROJETO: CARÔMETRO&lt;/b&gt;&lt;/font&gt;&lt;br&gt;&lt;/div&gt;" style="text;html=1;align=center;verticalAlign=middle;whiteSpace=wrap;rounded=0;" vertex="1" parent="1">
          <mxGeometry x="65" y="40" width="400" height="30" as="geometry" />
        </mxCell>
      </root>
    </mxGraphModel>
  </diagram>
</mxfile>
